<?xml version="1.0" encoding="UTF-8"?>
<svg version="1.1" xmlns="http://www.w3.org/2000/svg" width="225" height="225">
<path d="M0 0 C1.00967895 -0.00339833 1.00967895 -0.00339833 2.03975546 -0.00686532 C4.2881281 -0.01317941 6.53644005 -0.01237763 8.78482056 -0.0115509 C10.39979632 -0.014544 12.01477137 -0.01794688 13.62974548 -0.02172852 C18.01201488 -0.03055712 22.39426475 -0.03290614 26.77654219 -0.0335443 C29.51557715 -0.03425542 32.25460716 -0.03639091 34.9936409 -0.03904152 C44.55245529 -0.04829098 54.11125574 -0.05237688 63.67007446 -0.05158997 C72.57518449 -0.05098919 81.48023395 -0.06154199 90.38532865 -0.07733363 C98.0355846 -0.09041579 105.68582077 -0.09577358 113.33608782 -0.09513456 C117.90314084 -0.09487978 122.47014 -0.09771985 127.03718185 -0.10831261 C131.33324445 -0.11800501 135.62920183 -0.11806493 139.92526817 -0.11079597 C141.49941474 -0.10975157 143.07356789 -0.11210444 144.64770317 -0.11815643 C146.80179808 -0.12589992 148.95553174 -0.12121625 151.10961914 -0.11352539 C152.91534928 -0.11434254 152.91534928 -0.11434254 154.75755882 -0.1151762 C159.48532899 0.22845969 163.70819226 0.86609905 167.36148071 4.00871277 C167.92093384 4.70996277 168.48038696 5.41121277 169.05679321 6.13371277 C169.63171509 6.83496277 170.20663696 7.53621277 170.79898071 8.25871277 C173.46170871 11.86919141 173.31575298 14.34347731 173.33569336 18.81221008 C173.34226674 19.85373775 173.34226674 19.85373775 173.34897292 20.91630638 C173.36238035 23.25456562 173.36854418 25.59278716 173.37466431 27.93107605 C173.38256391 29.60310029 173.39083277 31.27512283 173.39944458 32.94714355 C173.42568688 38.44942085 173.44097705 43.95170582 173.45523071 49.45402527 C173.46058999 51.34771098 173.46596749 53.24139664 173.47136307 55.13508224 C173.49299738 63.01350558 173.5117332 70.89192685 173.52298546 78.77037239 C173.53921737 90.06153921 173.57237038 101.35236148 173.62938631 112.6433984 C173.66810354 120.58150236 173.68762042 128.51951425 173.69290602 136.45771015 C173.6965578 141.19879662 173.70856002 145.9395158 173.74100876 150.68050003 C173.77111981 155.1441001 173.77739048 159.60711124 173.765625 164.07079124 C173.7654045 165.70581318 173.77369011 167.34086268 173.79127884 168.97579002 C173.94183814 183.78125966 173.94183814 183.78125966 169.93862343 189.57575798 C164.82413576 194.1112791 160.64940077 195.63315923 153.85733032 195.64837646 C153.1539173 195.65532199 152.45050428 195.66226752 151.72577572 195.66942352 C149.38656639 195.68760947 147.04838096 195.67745361 144.70913696 195.66716003 C143.02489467 195.67422275 141.34065872 195.68296925 139.65643311 195.69326782 C135.09443522 195.71573055 130.53278478 195.71282964 125.97075272 195.70394635 C122.15854389 195.69882947 118.34639995 195.70613461 114.53419781 195.71341842 C105.54004409 195.73040709 96.54606008 195.72686147 87.5519104 195.71012878 C78.2796579 195.6932016 69.00787598 195.7090525 59.73567486 195.74135166 C51.76687739 195.76805665 43.79822633 195.77532132 35.82938862 195.76683658 C31.07336797 195.76191086 26.31763054 195.76410404 21.56164551 195.7846241 C17.08970659 195.80299597 12.61844428 195.79700438 8.1465416 195.7724247 C6.50789603 195.76742188 4.86919877 195.7708929 3.23059464 195.78357315 C-12.14760813 195.89314011 -12.14760813 195.89314011 -16.57506466 191.69270134 C-16.98530156 191.17823511 -17.39553846 190.66376888 -17.81820679 190.13371277 C-18.23845658 189.62530916 -18.65870638 189.11690556 -19.09169102 188.59309578 C-23.38049777 181.93569702 -22.36982951 173.52211363 -22.31991577 165.91471863 C-22.32370287 164.26974018 -22.32920612 162.62476493 -22.33628845 160.97979736 C-22.35020835 156.52939321 -22.33909825 152.07937716 -22.32257724 147.6289947 C-22.30869001 142.96378092 -22.31519091 138.29858883 -22.31871033 133.63336182 C-22.32140928 125.80130281 -22.30796303 117.96939734 -22.28475952 110.13737488 C-22.25814248 101.09070937 -22.25640682 92.04430034 -22.26814789 82.99760908 C-22.27893721 74.28268025 -22.27273013 65.56784393 -22.25859261 56.85292244 C-22.25284376 53.14933134 -22.25290679 49.44580818 -22.257658 45.74221611 C-22.26244001 41.3795537 -22.25227558 37.0171712 -22.23070335 32.654562 C-22.2251523 31.0562357 -22.22465471 29.45788241 -22.22965622 27.85955429 C-22.2356401 25.67259219 -22.22304596 23.48647705 -22.20588684 21.29959106 C-22.202242 19.46652106 -22.202242 19.46652106 -22.19852352 17.59641933 C-21.59690445 12.11879993 -19.81981934 7.34317826 -15.44320679 3.75871277 C-14.59629272 3.03554871 -14.59629272 3.03554871 -13.73226929 2.29777527 C-9.53846227 -0.2527441 -4.77904553 0.0066571 0 0 Z " fill="#F8F8F8" transform="translate(36.818206787109375,14.866287231445313)"/>
<path d="M0 0 C5.18292674 3.0341717 9.40276384 7.8467158 11.625 13.4375 C12.52173946 20.57365823 12.52377975 26.88871017 8.1171875 32.7890625 C3.78152283 37.57872347 -0.59771503 40.88185978 -7.13671875 41.84375 C-14.96789833 42.09468232 -20.38184124 40.62628395 -26.375 35.4375 C-31.67696641 28.77136717 -31.97196026 21.62128242 -31.375 13.4375 C-29.17573573 7.0712087 -24.46084093 2.34409067 -18.5234375 -0.83203125 C-12.58452627 -2.85126107 -5.72516068 -2.53841097 0 0 Z " fill="#010101" transform="translate(181.375,92.5625)"/>
<path d="M0 0 C5.83650792 2.66011755 8.98584545 5.58194652 12.16796875 11.125 C14.1027095 16.92922224 14.23105156 24.30253383 11.98046875 30.0625 C8.43811905 36.04784949 3.81954744 40.06487349 -2.83203125 42.125 C-9.7554937 43.13137139 -15.41405549 42.82948637 -21.1484375 38.62109375 C-25.65473613 34.61665668 -29.43265317 30.30320875 -30.203125 24.171875 C-30.35213192 16.77411988 -29.90409 11.71353471 -24.83203125 6.125 C-17.6603785 -1.02831092 -9.834179 -3.0384222 0 0 Z " fill="#010101" transform="translate(61.83203125,91.875)"/>
<path d="M0 0 C6.14370234 3.51068705 9.97858239 6.88533021 12.0625 13.75 C13.04063004 21.10079546 12.66119128 27.72598335 8.0625 33.75 C3.08947464 39.02942029 -1.42909503 41.7835021 -8.75 42.0625 C-14.70592057 41.89460313 -19.38611748 41.02963764 -23.91796875 36.98046875 C-29.77477885 30.66477456 -31.49098217 25.0658587 -31.31640625 16.5 C-30.51511052 10.68441036 -27.19370342 6.65523912 -22.875 2.875 C-16.09457009 -2.02999185 -7.99225736 -3.22154867 0 0 Z " fill="#010101" transform="translate(62.9375,151.25)"/>
<path d="M0 0 C5.70535804 2.47701758 9.46538616 7.43077232 12.1875 12.875 C13.43533131 19.80739615 13.65795526 25.92232305 10.0859375 32.1796875 C6.59183072 36.94066341 2.37402808 40.18338916 -3.25 42 C-9.76176424 42.67483963 -15.68880844 42.79788692 -21.25 39 C-22.11625 38.443125 -22.9825 37.88625 -23.875 37.3125 C-28.96319487 32.35820499 -30.51730005 27.57659882 -30.8125 20.5 C-30.57756695 13.50061547 -28.6220464 9.36342224 -23.72265625 4.4765625 C-16.69900463 -1.70711043 -8.95065184 -2.70966999 0 0 Z " fill="#010101" transform="translate(180.25,33)"/>
<path d="M0 0 C4.29294477 3.15982845 7.83823548 7.37107533 9.8203125 12.33984375 C10.56986554 19.24157242 10.38420345 25.31809698 6.8203125 31.33984375 C2.06671889 36.70287244 -1.7576826 39.89764326 -8.9140625 40.61328125 C-16.0862622 40.85483202 -20.73552191 40.16506708 -26.1796875 35.33984375 C-31.20735735 30.42790032 -33.46073638 25.54923823 -33.6171875 18.52734375 C-33.49028152 11.64057899 -31.39575948 7.71111491 -26.72265625 2.8125 C-19.31311386 -3.9323341 -8.65628058 -4.92391669 0 0 Z " fill="#010101" transform="translate(65.1796875,34.66015625)"/>
<path d="M0 0 C4.2736731 3.20759272 7.77004419 7.37107429 9.78515625 12.33984375 C10.56482793 18.8607342 10.38219177 25.67540908 6.78515625 31.33984375 C2.01068262 36.67292025 -2.55560465 39.8229482 -9.75 40.62109375 C-16.60117549 40.99804976 -21.01279461 39.85616823 -26.21484375 35.33984375 C-31.26003931 30.42335216 -33.49761986 25.56402618 -33.58984375 18.52734375 C-33.46671407 12.95230524 -32.74823516 8.74676803 -29.21484375 4.33984375 C-21.12252847 -3.23841052 -10.06292313 -5.80632731 0 0 Z " fill="#010101" transform="translate(183.21484375,152.66015625)"/>
<path d="M0 0 C-1.44077046 3.36179774 -3.24750021 5.59156268 -6 8 C-6.66 8 -7.32 8 -8 8 C-6.48291727 4.46014029 -4.24676932 0 0 0 Z " fill="#878787" transform="translate(25,17)"/>
</svg>
